<svg xmlns="http://www.w3.org/2000/svg"><metadata>This is a custom SVG webfont generated by Font Squirrel. Copyright : C GiorgioCat</metadata><defs><font id="GraphicPixelRegular" horiz-adv-x="1228"><font-face ascent="1638" descent="-410" units-per-em="2048"/><glyph horiz-adv-x="820"/><glyph horiz-adv-x="820"/><glyph horiz-adv-x="820"/><glyph d="M0 0v200h200v-200h-200zM0 400v200h200v-200h-200zM0 600v200h200v-200h-200zM0 800v200h200v-200h-200zM0 1000v200h200v-200h-200zM0 1200v200h200v-200h-200z" horiz-adv-x="410" unicode="!"/><glyph d="M0 1000v200h200v-200h-200zM0 1200v200h200v-200h-200zM400 1000v200h200v-200h-200zM400 1200v200h200v-200h-200z" horiz-adv-x="820" unicode="&quot;"/><glyph d="M0 200v200h200v-200h-200zM0 800v200h200v-200h-200zM200 0v200h200v-200h-200zM200 200v200h200v-200h-200zM200 400v200h200v-200h-200zM200 600v200h200v-200h-200zM200 800v200h200v-200h-200zM200 1000v200h200v-200h-200zM400 200v200h200v-200h-200zM400 800v200 h200v-200h-200zM600 0v200h200v-200h-200zM600 200v200h200v-200h-200zM600 400v200h200v-200h-200zM600 600v200h200v-200h-200zM600 800v200h200v-200h-200zM600 1000v200h200v-200h-200zM800 200v200h200v-200h-200zM800 800v200h200v-200h-200z" unicode="#"/><glyph d="M0 200v200h200v-200h-200zM0 800v200h200v-200h-200zM0 1000v200h200v-200h-200zM200 0v200h200v-200h-200zM200 600v200h200v-200h-200zM200 1200v200h200v-200h-200zM400 0v200h200v-200h-200zM400 0h200v-200h-200v200zM400 200v200h200v-200h-200zM400 400v200h200 v-200h-200zM400 600v200h200v-200h-200zM400 800v200h200v-200h-200zM400 1000v200h200v-200h-200zM400 1200v200h200v-200h-200zM400 1400v200h200v-200h-200zM600 0v200h200v-200h-200zM600 600v200h200v-200h-200zM600 1200v200h200v-200h-200zM800 200v200h200v-200 h-200zM800 400v200h200v-200h-200zM800 1000v200h200v-200h-200z" unicode="$"/><glyph d="M0 1000v200h200v-200h-200zM200 800v200h200v-200h-200zM200 1200v200h200v-200h-200zM400 0v200h200v-200h-200zM400 200v200h200v-200h-200zM400 1000v200h200v-200h-200zM600 400v200h200v-200h-200zM600 600v200h200v-200h-200zM800 800v200h200v-200h-200zM800 1000 v200h200v-200h-200zM1000 400v200h200v-200h-200zM1000 1200v200h200v-200h-200zM1000 1400v200h200v-200h-200zM1200 200v200h200v-200h-200zM1200 600v200h200v-200h-200zM1400 400v200h200v-200h-200z" horiz-adv-x="1844" unicode="%"/><glyph d="M0 0v200h200v-200h-200zM0 200v200h200v-200h-200zM0 400v200h200v-200h-200zM0 800v200h200v-200h-200zM0 1000v200h200v-200h-200zM200 0v200h200v-200h-200zM200 600v200h200v-200h-200zM200 1200v200h200v-200h-200zM400 0v200h200v-200h-200zM400 400v200h200v-200 h-200zM400 600v200h200v-200h-200zM400 1200v200h200v-200h-200zM600 200v200h200v-200h-200zM600 800v200h200v-200h-200zM600 1000v200h200v-200h-200zM800 0v200h200v-200h-200zM800 400v200h200v-200h-200zM1000 0v200h200v-200h-200z" horiz-adv-x="1434" unicode="&amp;"/><glyph d="M0 1000v200h200v-200h-200zM0 1200v200h200v-200h-200z" horiz-adv-x="410" unicode="'"/><glyph d="M0 200v200h200v-200h-200zM0 400v200h200v-200h-200zM0 600v200h200v-200h-200zM0 800v200h200v-200h-200zM0 1000v200h200v-200h-200zM200 0v200h200v-200h-200zM200 1200v200h200v-200h-200z" horiz-adv-x="614" unicode="("/><glyph d="M0 0v200h200v-200h-200zM0 1200v200h200v-200h-200zM200 200v200h200v-200h-200zM200 400v200h200v-200h-200zM200 600v200h200v-200h-200zM200 800v200h200v-200h-200zM200 1000v200h200v-200h-200z" horiz-adv-x="614" unicode=")"/><glyph d="M0 400v200h200v-200h-200zM0 800v200h200v-200h-200zM0 1200v200h200v-200h-200zM200 600v200h200v-200h-200zM200 800v200h200v-200h-200zM200 1000v200h200v-200h-200zM400 800v200h200v-200h-200zM600 600v200h200v-200h-200zM600 800v200h200v-200h-200zM600 1000 v200h200v-200h-200zM800 400v200h200v-200h-200zM800 800v200h200v-200h-200zM800 1200v200h200v-200h-200z" unicode="*"/><glyph d="M0 600v200h200v-200h-200zM200 600v200h200v-200h-200zM400 200v200h200v-200h-200zM400 400v200h200v-200h-200zM400 600v200h200v-200h-200zM400 800v200h200v-200h-200zM400 1000v200h200v-200h-200zM600 600v200h200v-200h-200zM800 600v200h200v-200h-200z" unicode="+"/><glyph d="M0 0h200v-200h-200v200zM200 0v200h200v-200h-200z" horiz-adv-x="614" unicode=","/><glyph d="M0 600v200h200v-200h-200zM200 600v200h200v-200h-200zM400 600v200h200v-200h-200zM600 600v200h200v-200h-200z" horiz-adv-x="1024" unicode="-"/><glyph d="M0 0v200h200v-200h-200z" horiz-adv-x="410" unicode="."/><glyph d="M0 0v200h200v-200h-200zM0 0h200v-200h-200v200zM200 200v200h200v-200h-200zM200 400v200h200v-200h-200zM400 600v200h200v-200h-200zM400 800v200h200v-200h-200zM600 1000v200h200v-200h-200zM600 1200v200h200v-200h-200z" horiz-adv-x="1024" unicode="/"/><glyph d="M0 200v200h200v-200h-200zM0 400v200h200v-200h-200zM0 600v200h200v-200h-200zM0 800v200h200v-200h-200zM0 1000v200h200v-200h-200zM200 0v200h200v-200h-200zM200 1200v200h200v-200h-200zM400 0v200h200v-200h-200zM400 1200v200h200v-200h-200zM600 0v200h200v-200 h-200zM600 1200v200h200v-200h-200zM800 200v200h200v-200h-200zM800 400v200h200v-200h-200zM800 600v200h200v-200h-200zM800 800v200h200v-200h-200zM800 1000v200h200v-200h-200z" unicode="0"/><glyph d="M0 0v200h200v-200h-200zM0 1000v200h200v-200h-200zM200 0v200h200v-200h-200zM200 200v200h200v-200h-200zM200 400v200h200v-200h-200zM200 600v200h200v-200h-200zM200 800v200h200v-200h-200zM200 1000v200h200v-200h-200zM200 1200v200h200v-200h-200zM400 0v200 h200v-200h-200z" horiz-adv-x="820" unicode="1"/><glyph d="M0 0v200h200v-200h-200zM0 200v200h200v-200h-200zM0 1000v200h200v-200h-200zM200 0v200h200v-200h-200zM200 400v200h200v-200h-200zM200 1200v200h200v-200h-200zM400 0v200h200v-200h-200zM400 600v200h200v-200h-200zM400 1200v200h200v-200h-200zM600 0v200h200 v-200h-200zM600 600v200h200v-200h-200zM600 1200v200h200v-200h-200zM800 0v200h200v-200h-200zM800 800v200h200v-200h-200zM800 1000v200h200v-200h-200z" unicode="2"/><glyph d="M0 200v200h200v-200h-200zM0 1000v200h200v-200h-200zM200 0v200h200v-200h-200zM200 1200v200h200v-200h-200zM400 0v200h200v-200h-200zM400 600v200h200v-200h-200zM400 1200v200h200v-200h-200zM600 0v200h200v-200h-200zM600 600v200h200v-200h-200zM600 1200v200 h200v-200h-200zM800 200v200h200v-200h-200zM800 400v200h200v-200h-200zM800 800v200h200v-200h-200zM800 1000v200h200v-200h-200z" unicode="3"/><glyph d="M0 400v200h200v-200h-200zM0 600v200h200v-200h-200zM200 400v200h200v-200h-200zM200 800v200h200v-200h-200zM400 400v200h200v-200h-200zM400 1000v200h200v-200h-200zM600 0v200h200v-200h-200zM600 200v200h200v-200h-200zM600 400v200h200v-200h-200zM600 600v200 h200v-200h-200zM600 800v200h200v-200h-200zM600 1000v200h200v-200h-200zM600 1200v200h200v-200h-200zM800 400v200h200v-200h-200z" unicode="4"/><glyph d="M0 0v200h200v-200h-200zM0 600v200h200v-200h-200zM0 800v200h200v-200h-200zM0 1000v200h200v-200h-200zM0 1200v200h200v-200h-200zM200 0v200h200v-200h-200zM200 600v200h200v-200h-200zM200 1200v200h200v-200h-200zM400 0v200h200v-200h-200zM400 600v200h200v-200 h-200zM400 1200v200h200v-200h-200zM600 200v200h200v-200h-200zM600 400v200h200v-200h-200zM600 1200v200h200v-200h-200z" horiz-adv-x="1024" unicode="5"/><glyph d="M0 200v200h200v-200h-200zM0 400v200h200v-200h-200zM0 600v200h200v-200h-200zM0 800v200h200v-200h-200zM0 1000v200h200v-200h-200zM200 0v200h200v-200h-200zM200 600v200h200v-200h-200zM200 1200v200h200v-200h-200zM400 0v200h200v-200h-200zM400 600v200h200 v-200h-200zM400 1200v200h200v-200h-200zM600 0v200h200v-200h-200zM600 600v200h200v-200h-200zM600 1200v200h200v-200h-200zM800 200v200h200v-200h-200zM800 400v200h200v-200h-200zM800 1000v200h200v-200h-200z" unicode="6"/><glyph d="M0 1200v200h200v-200h-200zM200 0v200h200v-200h-200zM200 200v200h200v-200h-200zM200 1200v200h200v-200h-200zM400 400v200h200v-200h-200zM400 600v200h200v-200h-200zM400 1200v200h200v-200h-200zM600 800v200h200v-200h-200zM600 1200v200h200v-200h-200z M800 1000v200h200v-200h-200zM800 1200v200h200v-200h-200z" unicode="7"/><glyph d="M0 200v200h200v-200h-200zM0 400v200h200v-200h-200zM0 800v200h200v-200h-200zM0 1000v200h200v-200h-200zM200 0v200h200v-200h-200zM200 600v200h200v-200h-200zM200 1200v200h200v-200h-200zM400 0v200h200v-200h-200zM400 600v200h200v-200h-200zM400 1200v200h200 v-200h-200zM600 0v200h200v-200h-200zM600 600v200h200v-200h-200zM600 1200v200h200v-200h-200zM800 200v200h200v-200h-200zM800 400v200h200v-200h-200zM800 800v200h200v-200h-200zM800 1000v200h200v-200h-200z" unicode="8"/><glyph d="M0 800v200h200v-200h-200zM0 1000v200h200v-200h-200zM200 0v200h200v-200h-200zM200 600v200h200v-200h-200zM200 1200v200h200v-200h-200zM400 0v200h200v-200h-200zM400 600v200h200v-200h-200zM400 1200v200h200v-200h-200zM600 200v200h200v-200h-200zM600 600v200 h200v-200h-200zM600 1200v200h200v-200h-200zM800 400v200h200v-200h-200zM800 600v200h200v-200h-200zM800 800v200h200v-200h-200zM800 1000v200h200v-200h-200z" unicode="9"/><glyph d="M0 200v200h200v-200h-200zM0 1000v200h200v-200h-200z" horiz-adv-x="410" unicode=":"/><glyph d="M0 0v200h200v-200h-200zM200 200v200h200v-200h-200zM200 1000v200h200v-200h-200z" horiz-adv-x="614" unicode=";"/><glyph d="M0 600v200h200v-200h-200zM200 400v200h200v-200h-200zM200 800v200h200v-200h-200zM400 200v200h200v-200h-200zM400 1000v200h200v-200h-200zM600 0v200h200v-200h-200zM600 1200v200h200v-200h-200z" horiz-adv-x="1024" unicode="&lt;"/><glyph d="M0 400v200h200v-200h-200zM0 800v200h200v-200h-200zM200 400v200h200v-200h-200zM200 800v200h200v-200h-200zM400 400v200h200v-200h-200zM400 800v200h200v-200h-200zM600 400v200h200v-200h-200zM600 800v200h200v-200h-200zM800 400v200h200v-200h-200zM800 800v200 h200v-200h-200z" unicode="="/><glyph d="M0 0v200h200v-200h-200zM0 1200v200h200v-200h-200zM200 200v200h200v-200h-200zM200 1000v200h200v-200h-200zM400 400v200h200v-200h-200zM400 800v200h200v-200h-200zM600 600v200h200v-200h-200z" horiz-adv-x="1024" unicode="&gt;"/><glyph d="M0 1000v200h200v-200h-200zM200 1200v200h200v-200h-200zM400 0v200h200v-200h-200zM400 400v200h200v-200h-200zM400 600v200h200v-200h-200zM400 1200v200h200v-200h-200zM600 800v200h200v-200h-200zM600 1200v200h200v-200h-200zM800 1000v200h200v-200h-200z" unicode="?"/><glyph d="M0 200v200h200v-200h-200zM0 400v200h200v-200h-200zM0 600v200h200v-200h-200zM0 800v200h200v-200h-200zM200 0v200h200v-200h-200zM200 1000v200h200v-200h-200zM400 200v200h200v-200h-200zM400 400v200h200v-200h-200zM400 1000v200h200v-200h-200zM600 200v200h200 v-200h-200zM600 600v200h200v-200h-200zM600 1000v200h200v-200h-200zM800 0v200h200v-200h-200zM800 200v200h200v-200h-200zM800 400v200h200v-200h-200zM800 600v200h200v-200h-200zM800 1000v200h200v-200h-200zM1000 0v200h200v-200h-200zM1000 1000v200h200v-200h-200 zM1200 0v200h200v-200h-200zM1200 200v200h200v-200h-200zM1200 400v200h200v-200h-200zM1200 600v200h200v-200h-200zM1200 800v200h200v-200h-200z" horiz-adv-x="1638" unicode="@"/><glyph d="M0 0v200h200v-200h-200zM0 200v200h200v-200h-200zM0 400v200h200v-200h-200zM0 600v200h200v-200h-200zM0 800v200h200v-200h-200zM0 1000v200h200v-200h-200zM200 600v200h200v-200h-200zM200 1200v200h200v-200h-200zM400 600v200h200v-200h-200zM400 1200v200h200 v-200h-200zM600 600v200h200v-200h-200zM600 1200v200h200v-200h-200zM800 0v200h200v-200h-200zM800 200v200h200v-200h-200zM800 400v200h200v-200h-200zM800 600v200h200v-200h-200zM800 800v200h200v-200h-200zM800 1000v200h200v-200h-200z" unicode="A"/><glyph d="M0 0v200h200v-200h-200zM0 200v200h200v-200h-200zM0 400v200h200v-200h-200zM0 600v200h200v-200h-200zM0 800v200h200v-200h-200zM0 1000v200h200v-200h-200zM0 1200v200h200v-200h-200zM200 0v200h200v-200h-200zM200 600v200h200v-200h-200zM200 1200v200h200v-200 h-200zM400 0v200h200v-200h-200zM400 600v200h200v-200h-200zM400 1200v200h200v-200h-200zM600 0v200h200v-200h-200zM600 600v200h200v-200h-200zM600 1200v200h200v-200h-200zM800 200v200h200v-200h-200zM800 400v200h200v-200h-200zM800 800v200h200v-200h-200z M800 1000v200h200v-200h-200z" unicode="B"/><glyph d="M0 200v200h200v-200h-200zM0 400v200h200v-200h-200zM0 600v200h200v-200h-200zM0 800v200h200v-200h-200zM0 1000v200h200v-200h-200zM200 0v200h200v-200h-200zM200 1200v200h200v-200h-200zM400 0v200h200v-200h-200zM400 1200v200h200v-200h-200zM600 0v200h200v-200 h-200zM600 1200v200h200v-200h-200zM800 200v200h200v-200h-200zM800 1000v200h200v-200h-200z" unicode="C"/><glyph d="M0 0v200h200v-200h-200zM0 200v200h200v-200h-200zM0 400v200h200v-200h-200zM0 600v200h200v-200h-200zM0 800v200h200v-200h-200zM0 1000v200h200v-200h-200zM0 1200v200h200v-200h-200zM200 0v200h200v-200h-200zM200 1200v200h200v-200h-200zM400 0v200h200v-200 h-200zM400 1200v200h200v-200h-200zM600 0v200h200v-200h-200zM600 1200v200h200v-200h-200zM800 200v200h200v-200h-200zM800 400v200h200v-200h-200zM800 600v200h200v-200h-200zM800 800v200h200v-200h-200zM800 1000v200h200v-200h-200z" unicode="D"/><glyph d="M0 0v200h200v-200h-200zM0 200v200h200v-200h-200zM0 400v200h200v-200h-200zM0 600v200h200v-200h-200zM0 800v200h200v-200h-200zM0 1000v200h200v-200h-200zM0 1200v200h200v-200h-200zM200 0v200h200v-200h-200zM200 600v200h200v-200h-200zM200 1200v200h200v-200 h-200zM400 0v200h200v-200h-200zM400 600v200h200v-200h-200zM400 1200v200h200v-200h-200zM600 0v200h200v-200h-200zM600 600v200h200v-200h-200zM600 1200v200h200v-200h-200zM800 0v200h200v-200h-200zM800 1200v200h200v-200h-200z" unicode="E"/><glyph d="M0 0v200h200v-200h-200zM0 200v200h200v-200h-200zM0 400v200h200v-200h-200zM0 600v200h200v-200h-200zM0 800v200h200v-200h-200zM0 1000v200h200v-200h-200zM0 1200v200h200v-200h-200zM200 600v200h200v-200h-200zM200 1200v200h200v-200h-200zM400 600v200h200v-200 h-200zM400 1200v200h200v-200h-200zM600 600v200h200v-200h-200zM600 1200v200h200v-200h-200zM800 1200v200h200v-200h-200z" unicode="F"/><glyph d="M0 200v200h200v-200h-200zM0 400v200h200v-200h-200zM0 600v200h200v-200h-200zM0 800v200h200v-200h-200zM0 1000v200h200v-200h-200zM200 0v200h200v-200h-200zM200 1200v200h200v-200h-200zM400 0v200h200v-200h-200zM400 1200v200h200v-200h-200zM600 0v200h200v-200 h-200zM600 600v200h200v-200h-200zM600 1200v200h200v-200h-200zM800 200v200h200v-200h-200zM800 400v200h200v-200h-200zM800 600v200h200v-200h-200zM800 1000v200h200v-200h-200z" unicode="G"/><glyph d="M0 0v200h200v-200h-200zM0 200v200h200v-200h-200zM0 400v200h200v-200h-200zM0 600v200h200v-200h-200zM0 800v200h200v-200h-200zM0 1000v200h200v-200h-200zM0 1200v200h200v-200h-200zM200 600v200h200v-200h-200zM400 600v200h200v-200h-200zM600 600v200h200v-200 h-200zM800 0v200h200v-200h-200zM800 200v200h200v-200h-200zM800 400v200h200v-200h-200zM800 600v200h200v-200h-200zM800 800v200h200v-200h-200zM800 1000v200h200v-200h-200zM800 1200v200h200v-200h-200z" unicode="H"/><glyph d="M0 0v200h200v-200h-200zM0 1200v200h200v-200h-200zM200 0v200h200v-200h-200zM200 1200v200h200v-200h-200zM400 0v200h200v-200h-200zM400 200v200h200v-200h-200zM400 400v200h200v-200h-200zM400 600v200h200v-200h-200zM400 800v200h200v-200h-200zM400 1000v200 h200v-200h-200zM400 1200v200h200v-200h-200zM600 0v200h200v-200h-200zM600 1200v200h200v-200h-200zM800 0v200h200v-200h-200zM800 1200v200h200v-200h-200z" unicode="I"/><glyph d="M0 200v200h200v-200h-200zM0 400v200h200v-200h-200zM200 0v200h200v-200h-200zM400 0v200h200v-200h-200zM600 0v200h200v-200h-200zM800 200v200h200v-200h-200zM800 400v200h200v-200h-200zM800 600v200h200v-200h-200zM800 800v200h200v-200h-200zM800 1000v200h200 v-200h-200zM800 1200v200h200v-200h-200z" unicode="J"/><glyph d="M0 0v200h200v-200h-200zM0 200v200h200v-200h-200zM0 400v200h200v-200h-200zM0 600v200h200v-200h-200zM0 800v200h200v-200h-200zM0 1000v200h200v-200h-200zM0 1200v200h200v-200h-200zM200 600v200h200v-200h-200zM400 400v200h200v-200h-200zM400 800v200h200v-200 h-200zM600 200v200h200v-200h-200zM600 1000v200h200v-200h-200zM800 0v200h200v-200h-200zM800 1200v200h200v-200h-200z" unicode="K"/><glyph d="M0 0v200h200v-200h-200zM0 200v200h200v-200h-200zM0 400v200h200v-200h-200zM0 600v200h200v-200h-200zM0 800v200h200v-200h-200zM0 1000v200h200v-200h-200zM0 1200v200h200v-200h-200zM200 0v200h200v-200h-200zM400 0v200h200v-200h-200zM600 0v200h200v-200h-200z M800 0v200h200v-200h-200z" unicode="L"/><glyph d="M0 0v200h200v-200h-200zM0 200v200h200v-200h-200zM0 400v200h200v-200h-200zM0 600v200h200v-200h-200zM0 800v200h200v-200h-200zM0 1000v200h200v-200h-200zM0 1200v200h200v-200h-200zM200 1000v200h200v-200h-200zM400 800v200h200v-200h-200zM600 1000v200h200 v-200h-200zM800 0v200h200v-200h-200zM800 200v200h200v-200h-200zM800 400v200h200v-200h-200zM800 600v200h200v-200h-200zM800 800v200h200v-200h-200zM800 1000v200h200v-200h-200zM800 1200v200h200v-200h-200z" unicode="M"/><glyph d="M0 0v200h200v-200h-200zM0 200v200h200v-200h-200zM0 400v200h200v-200h-200zM0 600v200h200v-200h-200zM0 800v200h200v-200h-200zM0 1000v200h200v-200h-200zM0 1200v200h200v-200h-200zM200 800v200h200v-200h-200zM400 600v200h200v-200h-200zM600 400v200h200v-200 h-200zM800 0v200h200v-200h-200zM800 200v200h200v-200h-200zM800 400v200h200v-200h-200zM800 600v200h200v-200h-200zM800 800v200h200v-200h-200zM800 1000v200h200v-200h-200zM800 1200v200h200v-200h-200z" unicode="N"/><glyph d="M0 200v200h200v-200h-200zM0 400v200h200v-200h-200zM0 600v200h200v-200h-200zM0 800v200h200v-200h-200zM0 1000v200h200v-200h-200zM200 0v200h200v-200h-200zM200 1200v200h200v-200h-200zM400 0v200h200v-200h-200zM400 1200v200h200v-200h-200zM600 0v200h200v-200 h-200zM600 1200v200h200v-200h-200zM800 200v200h200v-200h-200zM800 400v200h200v-200h-200zM800 600v200h200v-200h-200zM800 800v200h200v-200h-200zM800 1000v200h200v-200h-200z" unicode="O"/><glyph d="M0 0v200h200v-200h-200zM0 200v200h200v-200h-200zM0 400v200h200v-200h-200zM0 600v200h200v-200h-200zM0 800v200h200v-200h-200zM0 1000v200h200v-200h-200zM0 1200v200h200v-200h-200zM200 600v200h200v-200h-200zM200 1200v200h200v-200h-200zM400 600v200h200v-200 h-200zM400 1200v200h200v-200h-200zM600 600v200h200v-200h-200zM600 1200v200h200v-200h-200zM800 800v200h200v-200h-200zM800 1000v200h200v-200h-200z" unicode="P"/><glyph d="M0 400v200h200v-200h-200zM0 600v200h200v-200h-200zM0 800v200h200v-200h-200zM0 1000v200h200v-200h-200zM200 200v200h200v-200h-200zM200 1200v200h200v-200h-200zM400 200v200h200v-200h-200zM400 1200v200h200v-200h-200zM600 200v200h200v-200h-200zM600 1200v200 h200v-200h-200zM800 0v200h200v-200h-200zM800 200v200h200v-200h-200zM800 1200v200h200v-200h-200zM1000 0v200h200v-200h-200zM1000 400v200h200v-200h-200zM1000 600v200h200v-200h-200zM1000 800v200h200v-200h-200zM1000 1000v200h200v-200h-200z" horiz-adv-x="1434" unicode="Q"/><glyph d="M0 0v200h200v-200h-200zM0 200v200h200v-200h-200zM0 400v200h200v-200h-200zM0 600v200h200v-200h-200zM0 800v200h200v-200h-200zM0 1000v200h200v-200h-200zM0 1200v200h200v-200h-200zM200 600v200h200v-200h-200zM200 1200v200h200v-200h-200zM400 400v200h200v-200 h-200zM400 600v200h200v-200h-200zM400 1200v200h200v-200h-200zM600 200v200h200v-200h-200zM600 600v200h200v-200h-200zM600 1200v200h200v-200h-200zM800 0v200h200v-200h-200zM800 800v200h200v-200h-200zM800 1000v200h200v-200h-200z" unicode="R"/><glyph d="M0 200v200h200v-200h-200zM0 800v200h200v-200h-200zM0 1000v200h200v-200h-200zM200 0v200h200v-200h-200zM200 600v200h200v-200h-200zM200 1200v200h200v-200h-200zM400 0v200h200v-200h-200zM400 600v200h200v-200h-200zM400 1200v200h200v-200h-200zM600 0v200h200 v-200h-200zM600 600v200h200v-200h-200zM600 1200v200h200v-200h-200zM800 200v200h200v-200h-200zM800 400v200h200v-200h-200zM800 1000v200h200v-200h-200z" unicode="S"/><glyph d="M0 1200v200h200v-200h-200zM200 1200v200h200v-200h-200zM400 0v200h200v-200h-200zM400 200v200h200v-200h-200zM400 400v200h200v-200h-200zM400 600v200h200v-200h-200zM400 800v200h200v-200h-200zM400 1000v200h200v-200h-200zM400 1200v200h200v-200h-200z M600 1200v200h200v-200h-200zM800 1200v200h200v-200h-200z" unicode="T"/><glyph d="M0 200v200h200v-200h-200zM0 400v200h200v-200h-200zM0 600v200h200v-200h-200zM0 800v200h200v-200h-200zM0 1000v200h200v-200h-200zM0 1200v200h200v-200h-200zM200 0v200h200v-200h-200zM400 0v200h200v-200h-200zM600 0v200h200v-200h-200zM800 200v200h200v-200 h-200zM800 400v200h200v-200h-200zM800 600v200h200v-200h-200zM800 800v200h200v-200h-200zM800 1000v200h200v-200h-200zM800 1200v200h200v-200h-200z" unicode="U"/><glyph d="M0 400v200h200v-200h-200zM0 600v200h200v-200h-200zM0 800v200h200v-200h-200zM0 1000v200h200v-200h-200zM0 1200v200h200v-200h-200zM200 200v200h200v-200h-200zM400 0v200h200v-200h-200zM600 200v200h200v-200h-200zM800 400v200h200v-200h-200zM800 600v200h200 v-200h-200zM800 800v200h200v-200h-200zM800 1000v200h200v-200h-200zM800 1200v200h200v-200h-200z" unicode="V"/><glyph d="M0 400v200h200v-200h-200zM0 600v200h200v-200h-200zM0 800v200h200v-200h-200zM0 1000v200h200v-200h-200zM0 1200v200h200v-200h-200zM200 0v200h200v-200h-200zM200 200v200h200v-200h-200zM400 400v200h200v-200h-200zM400 600v200h200v-200h-200zM400 800v200h200 v-200h-200zM600 0v200h200v-200h-200zM600 200v200h200v-200h-200zM800 400v200h200v-200h-200zM800 600v200h200v-200h-200zM800 800v200h200v-200h-200zM800 1000v200h200v-200h-200zM800 1200v200h200v-200h-200z" unicode="W"/><glyph d="M0 0v200h200v-200h-200zM0 200v200h200v-200h-200zM0 1000v200h200v-200h-200zM0 1200v200h200v-200h-200zM200 400v200h200v-200h-200zM200 800v200h200v-200h-200zM400 600v200h200v-200h-200zM600 400v200h200v-200h-200zM600 800v200h200v-200h-200zM800 0v200h200 v-200h-200zM800 200v200h200v-200h-200zM800 1000v200h200v-200h-200zM800 1200v200h200v-200h-200z" unicode="X"/><glyph d="M0 1000v200h200v-200h-200zM0 1200v200h200v-200h-200zM200 800v200h200v-200h-200zM400 0v200h200v-200h-200zM400 200v200h200v-200h-200zM400 400v200h200v-200h-200zM400 600v200h200v-200h-200zM600 800v200h200v-200h-200zM800 1000v200h200v-200h-200zM800 1200 v200h200v-200h-200z" unicode="Y"/><glyph d="M0 0v200h200v-200h-200zM0 200v200h200v-200h-200zM0 1200v200h200v-200h-200zM200 0v200h200v-200h-200zM200 400v200h200v-200h-200zM200 1200v200h200v-200h-200zM400 0v200h200v-200h-200zM400 600v200h200v-200h-200zM400 1200v200h200v-200h-200zM600 0v200h200 v-200h-200zM600 800v200h200v-200h-200zM600 1200v200h200v-200h-200zM800 0v200h200v-200h-200zM800 1000v200h200v-200h-200zM800 1200v200h200v-200h-200z" unicode="Z"/><glyph d="M0 0v200h200v-200h-200zM0 200v200h200v-200h-200zM0 400v200h200v-200h-200zM0 600v200h200v-200h-200zM0 800v200h200v-200h-200zM0 1000v200h200v-200h-200zM0 1200v200h200v-200h-200zM200 0v200h200v-200h-200zM200 1200v200h200v-200h-200z" horiz-adv-x="614" unicode="["/><glyph d="M0 1000v200h200v-200h-200zM0 1200v200h200v-200h-200zM200 600v200h200v-200h-200zM200 800v200h200v-200h-200zM400 200v200h200v-200h-200zM400 400v200h200v-200h-200zM600 0v200h200v-200h-200zM600 0h200v-200h-200v200z" horiz-adv-x="1024" unicode="\"/><glyph d="M0 0v200h200v-200h-200zM0 1200v200h200v-200h-200zM200 0v200h200v-200h-200zM200 200v200h200v-200h-200zM200 400v200h200v-200h-200zM200 600v200h200v-200h-200zM200 800v200h200v-200h-200zM200 1000v200h200v-200h-200zM200 1200v200h200v-200h-200z" horiz-adv-x="614" unicode="]"/><glyph d="M0 1000v200h200v-200h-200zM0 1200v200h200v-200h-200zM200 1400v200h200v-200h-200zM400 1000v200h200v-200h-200zM400 1200v200h200v-200h-200z" horiz-adv-x="820" unicode="^"/><glyph d="M0 0v200h200v-200h-200zM200 0v200h200v-200h-200zM400 0v200h200v-200h-200zM600 0v200h200v-200h-200zM800 0v200h200v-200h-200z" unicode="_"/><glyph d="M0 1200v200h200v-200h-200zM200 1000v200h200v-200h-200z" horiz-adv-x="614" unicode="`"/><glyph d="M0 200v200h200v-200h-200zM0 400v200h200v-200h-200zM0 600v200h200v-200h-200zM200 0v200h200v-200h-200zM200 800v200h200v-200h-200zM400 0v200h200v-200h-200zM400 800v200h200v-200h-200zM600 0v200h200v-200h-200zM600 200v200h200v-200h-200zM600 400v200h200 v-200h-200zM600 600v200h200v-200h-200zM600 800v200h200v-200h-200zM800 0v200h200v-200h-200z" unicode="a"/><glyph d="M0 0v200h200v-200h-200zM0 200v200h200v-200h-200zM0 400v200h200v-200h-200zM0 600v200h200v-200h-200zM0 800v200h200v-200h-200zM0 1000v200h200v-200h-200zM0 1200v200h200v-200h-200zM200 0v200h200v-200h-200zM200 800v200h200v-200h-200zM400 0v200h200v-200h-200 zM400 800v200h200v-200h-200zM600 200v200h200v-200h-200zM600 400v200h200v-200h-200zM600 600v200h200v-200h-200z" horiz-adv-x="1024" unicode="b"/><glyph d="M0 200v200h200v-200h-200zM0 400v200h200v-200h-200zM0 600v200h200v-200h-200zM200 0v200h200v-200h-200zM200 800v200h200v-200h-200zM400 0v200h200v-200h-200zM400 800v200h200v-200h-200zM600 0v200h200v-200h-200zM600 800v200h200v-200h-200z" horiz-adv-x="1024" unicode="c"/><glyph d="M0 200v200h200v-200h-200zM0 400v200h200v-200h-200zM0 600v200h200v-200h-200zM200 0v200h200v-200h-200zM200 800v200h200v-200h-200zM400 0v200h200v-200h-200zM400 800v200h200v-200h-200zM600 0v200h200v-200h-200zM600 200v200h200v-200h-200zM600 400v200h200 v-200h-200zM600 600v200h200v-200h-200zM600 800v200h200v-200h-200zM600 1000v200h200v-200h-200zM600 1200v200h200v-200h-200z" horiz-adv-x="1024" unicode="d"/><glyph d="M0 200v200h200v-200h-200zM0 400v200h200v-200h-200zM0 600v200h200v-200h-200zM200 0v200h200v-200h-200zM200 400v200h200v-200h-200zM200 800v200h200v-200h-200zM400 0v200h200v-200h-200zM400 400v200h200v-200h-200zM400 800v200h200v-200h-200zM600 0v200h200 v-200h-200zM600 400v200h200v-200h-200zM600 800v200h200v-200h-200zM800 0v200h200v-200h-200zM800 400v200h200v-200h-200zM800 600v200h200v-200h-200z" unicode="e"/><glyph d="M0 0h200v-200h-200v200zM0 800v200h200v-200h-200zM200 0v200h200v-200h-200zM200 200v200h200v-200h-200zM200 400v200h200v-200h-200zM200 600v200h200v-200h-200zM200 800v200h200v-200h-200zM200 1000v200h200v-200h-200zM200 1200v200h200v-200h-200zM400 800v200 h200v-200h-200zM400 1400v200h200v-200h-200zM600 800v200h200v-200h-200zM600 1400v200h200v-200h-200z" horiz-adv-x="1024" unicode="f"/><glyph d="M0 0h200v-200h-200v200zM0 200v200h200v-200h-200zM0 400v200h200v-200h-200zM0 600v200h200v-200h-200zM200 0v200h200v-200h-200zM200 -200h200v-200h-200v200zM200 800v200h200v-200h-200zM400 0v200h200v-200h-200zM400 -200h200v-200h-200v200zM400 800v200h200 v-200h-200zM600 0v200h200v-200h-200zM600 0h200v-200h-200v200zM600 200v200h200v-200h-200zM600 400v200h200v-200h-200zM600 600v200h200v-200h-200zM600 800v200h200v-200h-200z" horiz-adv-x="1024" unicode="g"/><glyph d="M0 0v200h200v-200h-200zM0 200v200h200v-200h-200zM0 400v200h200v-200h-200zM0 600v200h200v-200h-200zM0 800v200h200v-200h-200zM0 1000v200h200v-200h-200zM0 1200v200h200v-200h-200zM200 800v200h200v-200h-200zM400 800v200h200v-200h-200zM600 0v200h200v-200 h-200zM600 200v200h200v-200h-200zM600 400v200h200v-200h-200zM600 600v200h200v-200h-200z" horiz-adv-x="1024" unicode="h"/><glyph d="M0 0v200h200v-200h-200zM0 800v200h200v-200h-200zM200 0v200h200v-200h-200zM200 200v200h200v-200h-200zM200 400v200h200v-200h-200zM200 600v200h200v-200h-200zM200 800v200h200v-200h-200zM200 1200v200h200v-200h-200zM400 0v200h200v-200h-200z" horiz-adv-x="820" unicode="i"/><glyph d="M0 0h200v-200h-200v200zM200 -200h200v-200h-200v200zM400 -200h200v-200h-200v200zM400 800v200h200v-200h-200zM600 0v200h200v-200h-200zM600 0h200v-200h-200v200zM600 200v200h200v-200h-200zM600 400v200h200v-200h-200zM600 600v200h200v-200h-200zM600 800v200 h200v-200h-200zM600 1200v200h200v-200h-200z" horiz-adv-x="1024" unicode="j"/><glyph d="M0 0v200h200v-200h-200zM0 200v200h200v-200h-200zM0 400v200h200v-200h-200zM0 600v200h200v-200h-200zM0 800v200h200v-200h-200zM0 1000v200h200v-200h-200zM0 1200v200h200v-200h-200zM200 400v200h200v-200h-200zM400 400v200h200v-200h-200zM400 600v200h200v-200 h-200zM600 0v200h200v-200h-200zM600 200v200h200v-200h-200zM600 800v200h200v-200h-200z" horiz-adv-x="1024" unicode="k"/><glyph d="M0 0v200h200v-200h-200zM0 200v200h200v-200h-200zM0 400v200h200v-200h-200zM0 600v200h200v-200h-200zM0 800v200h200v-200h-200zM0 1000v200h200v-200h-200zM0 1200v200h200v-200h-200z" horiz-adv-x="410" unicode="l"/><glyph d="M0 0v200h200v-200h-200zM0 200v200h200v-200h-200zM0 400v200h200v-200h-200zM0 600v200h200v-200h-200zM0 800v200h200v-200h-200zM200 800v200h200v-200h-200zM400 0v200h200v-200h-200zM400 200v200h200v-200h-200zM400 400v200h200v-200h-200zM400 600v200h200v-200 h-200zM600 800v200h200v-200h-200zM800 0v200h200v-200h-200zM800 200v200h200v-200h-200zM800 400v200h200v-200h-200zM800 600v200h200v-200h-200z" unicode="m"/><glyph d="M0 0v200h200v-200h-200zM0 200v200h200v-200h-200zM0 400v200h200v-200h-200zM0 600v200h200v-200h-200zM0 800v200h200v-200h-200zM200 800v200h200v-200h-200zM400 800v200h200v-200h-200zM600 0v200h200v-200h-200zM600 200v200h200v-200h-200zM600 400v200h200v-200 h-200zM600 600v200h200v-200h-200z" horiz-adv-x="1024" unicode="n"/><glyph d="M0 200v200h200v-200h-200zM0 400v200h200v-200h-200zM0 600v200h200v-200h-200zM200 0v200h200v-200h-200zM200 800v200h200v-200h-200zM400 0v200h200v-200h-200zM400 800v200h200v-200h-200zM600 0v200h200v-200h-200zM600 800v200h200v-200h-200zM800 200v200h200 v-200h-200zM800 400v200h200v-200h-200zM800 600v200h200v-200h-200z" unicode="o"/><glyph d="M0 0v200h200v-200h-200zM0 0h200v-200h-200v200zM0 200v200h200v-200h-200zM0 -200h200v-200h-200v200zM0 400v200h200v-200h-200zM0 600v200h200v-200h-200zM0 800v200h200v-200h-200zM200 0v200h200v-200h-200zM200 800v200h200v-200h-200zM400 0v200h200v-200h-200z M400 800v200h200v-200h-200zM600 200v200h200v-200h-200zM600 400v200h200v-200h-200zM600 600v200h200v-200h-200z" horiz-adv-x="1024" unicode="p"/><glyph d="M0 200v200h200v-200h-200zM0 400v200h200v-200h-200zM0 600v200h200v-200h-200zM200 0v200h200v-200h-200zM200 800v200h200v-200h-200zM400 0v200h200v-200h-200zM400 800v200h200v-200h-200zM600 0v200h200v-200h-200zM600 0h200v-200h-200v200zM600 200v200h200v-200 h-200zM600 -200h200v-200h-200v200zM600 400v200h200v-200h-200zM600 600v200h200v-200h-200z" horiz-adv-x="1024" unicode="q"/><glyph d="M0 0v200h200v-200h-200zM0 200v200h200v-200h-200zM0 400v200h200v-200h-200zM0 600v200h200v-200h-200zM0 800v200h200v-200h-200zM200 600v200h200v-200h-200zM400 800v200h200v-200h-200zM600 800v200h200v-200h-200z" horiz-adv-x="1024" unicode="r"/><glyph d="M0 0v200h200v-200h-200zM0 600v200h200v-200h-200zM200 0v200h200v-200h-200zM200 400v200h200v-200h-200zM200 800v200h200v-200h-200zM400 0v200h200v-200h-200zM400 400v200h200v-200h-200zM400 800v200h200v-200h-200zM600 200v200h200v-200h-200zM600 800v200h200 v-200h-200z" horiz-adv-x="1024" unicode="s"/><glyph d="M0 800v200h200v-200h-200zM200 200v200h200v-200h-200zM200 400v200h200v-200h-200zM200 600v200h200v-200h-200zM200 800v200h200v-200h-200zM200 1000v200h200v-200h-200zM200 1200v200h200v-200h-200zM400 0v200h200v-200h-200zM400 800v200h200v-200h-200zM600 0v200 h200v-200h-200zM600 800v200h200v-200h-200z" horiz-adv-x="1024" unicode="t"/><glyph d="M0 200v200h200v-200h-200zM0 400v200h200v-200h-200zM0 600v200h200v-200h-200zM0 800v200h200v-200h-200zM200 0v200h200v-200h-200zM400 0v200h200v-200h-200zM600 0v200h200v-200h-200zM600 200v200h200v-200h-200zM600 400v200h200v-200h-200zM600 600v200h200v-200 h-200zM600 800v200h200v-200h-200z" horiz-adv-x="1024" unicode="u"/><glyph d="M0 600v200h200v-200h-200zM0 800v200h200v-200h-200zM200 200v200h200v-200h-200zM200 400v200h200v-200h-200zM400 0v200h200v-200h-200zM600 200v200h200v-200h-200zM600 400v200h200v-200h-200zM800 600v200h200v-200h-200zM800 800v200h200v-200h-200z" unicode="v"/><glyph d="M0 400v200h200v-200h-200zM0 600v200h200v-200h-200zM0 800v200h200v-200h-200zM200 0v200h200v-200h-200zM200 200v200h200v-200h-200zM400 400v200h200v-200h-200zM400 600v200h200v-200h-200zM600 0v200h200v-200h-200zM600 200v200h200v-200h-200zM800 400v200h200 v-200h-200zM800 600v200h200v-200h-200zM800 800v200h200v-200h-200z" unicode="w"/><glyph d="M0 0v200h200v-200h-200zM0 800v200h200v-200h-200zM200 200v200h200v-200h-200zM200 600v200h200v-200h-200zM400 400v200h200v-200h-200zM600 200v200h200v-200h-200zM600 600v200h200v-200h-200zM800 0v200h200v-200h-200zM800 800v200h200v-200h-200z" unicode="x"/><glyph d="M0 200v200h200v-200h-200zM0 400v200h200v-200h-200zM0 600v200h200v-200h-200zM0 800v200h200v-200h-200zM200 0v200h200v-200h-200zM200 -200h200v-200h-200v200zM400 0v200h200v-200h-200zM400 -200h200v-200h-200v200zM600 0v200h200v-200h-200zM600 0h200v-200h-200 v200zM600 200v200h200v-200h-200zM600 400v200h200v-200h-200zM600 600v200h200v-200h-200zM600 800v200h200v-200h-200z" horiz-adv-x="1024" unicode="y"/><glyph d="M0 0v200h200v-200h-200zM0 800v200h200v-200h-200zM200 0v200h200v-200h-200zM200 200v200h200v-200h-200zM200 800v200h200v-200h-200zM400 0v200h200v-200h-200zM400 400v200h200v-200h-200zM400 800v200h200v-200h-200zM600 0v200h200v-200h-200zM600 600v200h200 v-200h-200zM600 800v200h200v-200h-200zM800 0v200h200v-200h-200zM800 800v200h200v-200h-200z" unicode="z"/><glyph d="M0 400v200h200v-200h-200zM200 0v200h200v-200h-200zM200 0h200v-200h-200v200zM200 200v200h200v-200h-200zM200 400v200h200v-200h-200zM200 600v200h200v-200h-200zM200 800v200h200v-200h-200zM200 1000v200h200v-200h-200zM400 0h200v-200h-200v200zM400 1000v200 h200v-200h-200z" horiz-adv-x="820" unicode="{"/><glyph d="M0 0v200h200v-200h-200zM0 200v200h200v-200h-200zM0 400v200h200v-200h-200zM0 600v200h200v-200h-200zM0 800v200h200v-200h-200zM0 1000v200h200v-200h-200zM0 1200v200h200v-200h-200z" horiz-adv-x="410" unicode="|"/><glyph d="M0 0h200v-200h-200v200zM0 1000v200h200v-200h-200zM200 0v200h200v-200h-200zM200 0h200v-200h-200v200zM200 200v200h200v-200h-200zM200 400v200h200v-200h-200zM200 600v200h200v-200h-200zM200 800v200h200v-200h-200zM200 1000v200h200v-200h-200zM400 400v200h200 v-200h-200z" horiz-adv-x="820" unicode="}"/><glyph d="M0 600v200h200v-200h-200zM200 800v200h200v-200h-200zM400 600v200h200v-200h-200zM600 400v200h200v-200h-200zM800 600v200h200v-200h-200z" unicode="~"/><glyph d="M0 200v200h200v-200h-200zM0 400v200h200v-200h-200zM0 600v200h200v-200h-200zM200 0v200h200v-200h-200zM200 800v200h200v-200h-200zM400 0v200h200v-200h-200zM400 800v200h200v-200h-200zM600 0v200h200v-200h-200zM600 200v200h200v-200h-200zM600 400v200h200 v-200h-200zM600 600v200h200v-200h-200zM600 800v200h200v-200h-200zM800 0v200h200v-200h-200z" unicode="ª"/><glyph d="M0 600v200h200v-200h-200zM200 600v200h200v-200h-200zM400 600v200h200v-200h-200zM600 600v200h200v-200h-200z" horiz-adv-x="1024" unicode="­"/><glyph d="M0 0v200h200v-200h-200zM0 200v200h200v-200h-200zM0 1000v200h200v-200h-200zM200 0v200h200v-200h-200zM200 400v200h200v-200h-200zM200 1200v200h200v-200h-200zM400 0v200h200v-200h-200zM400 600v200h200v-200h-200zM400 1200v200h200v-200h-200zM600 0v200h200 v-200h-200zM600 600v200h200v-200h-200zM600 1200v200h200v-200h-200zM800 0v200h200v-200h-200zM800 800v200h200v-200h-200zM800 1000v200h200v-200h-200z" unicode="²"/><glyph d="M0 200v200h200v-200h-200zM0 1000v200h200v-200h-200zM200 0v200h200v-200h-200zM200 1200v200h200v-200h-200zM400 0v200h200v-200h-200zM400 600v200h200v-200h-200zM400 1200v200h200v-200h-200zM600 0v200h200v-200h-200zM600 600v200h200v-200h-200zM600 1200v200 h200v-200h-200zM800 200v200h200v-200h-200zM800 400v200h200v-200h-200zM800 800v200h200v-200h-200zM800 1000v200h200v-200h-200z" unicode="³"/><glyph d="M0 0v200h200v-200h-200zM0 1000v200h200v-200h-200zM200 0v200h200v-200h-200zM200 200v200h200v-200h-200zM200 400v200h200v-200h-200zM200 600v200h200v-200h-200zM200 800v200h200v-200h-200zM200 1000v200h200v-200h-200zM200 1200v200h200v-200h-200zM400 0v200 h200v-200h-200z" horiz-adv-x="820" unicode="¹"/><glyph d="M0 200v200h200v-200h-200zM0 400v200h200v-200h-200zM0 600v200h200v-200h-200zM200 0v200h200v-200h-200zM200 800v200h200v-200h-200zM400 0v200h200v-200h-200zM400 800v200h200v-200h-200zM600 0v200h200v-200h-200zM600 800v200h200v-200h-200zM800 200v200h200 v-200h-200zM800 400v200h200v-200h-200zM800 600v200h200v-200h-200z" unicode="º"/><glyph d="M0 0v200h200v-200h-200zM0 200v200h200v-200h-200zM0 400v200h200v-200h-200zM0 600v200h200v-200h-200zM0 800v200h200v-200h-200zM0 1000v200h200v-200h-200zM200 600v200h200v-200h-200zM200 1200v200h200v-200h-200zM200 1722v200h200v-200h-200zM400 600v200h200 v-200h-200zM400 1200v200h200v-200h-200zM400 1522v200h200v-200h-200zM600 600v200h200v-200h-200zM600 1200v200h200v-200h-200zM800 0v200h200v-200h-200zM800 200v200h200v-200h-200zM800 400v200h200v-200h-200zM800 600v200h200v-200h-200zM800 800v200h200v-200h-200 zM800 1000v200h200v-200h-200z" unicode="À"/><glyph d="M0 0v200h200v-200h-200zM0 200v200h200v-200h-200zM0 400v200h200v-200h-200zM0 600v200h200v-200h-200zM0 800v200h200v-200h-200zM0 1000v200h200v-200h-200zM200 600v200h200v-200h-200zM200 1200v200h200v-200h-200zM200 1522v200h200v-200h-200zM200 1722v200h200 v-200h-200zM400 600v200h200v-200h-200zM400 1200v200h200v-200h-200zM400 1922v200h200v-200h-200zM600 600v200h200v-200h-200zM600 1200v200h200v-200h-200zM600 1522v200h200v-200h-200zM600 1722v200h200v-200h-200zM800 0v200h200v-200h-200zM800 200v200h200v-200 h-200zM800 400v200h200v-200h-200zM800 600v200h200v-200h-200zM800 800v200h200v-200h-200zM800 1000v200h200v-200h-200z" unicode="Â"/><glyph d="M0 0v200h200v-200h-200zM0 200v200h200v-200h-200zM0 400v200h200v-200h-200zM0 600v200h200v-200h-200zM0 800v200h200v-200h-200zM0 1000v200h200v-200h-200zM0 1722v200h200v-200h-200zM200 600v200h200v-200h-200zM200 1200v200h200v-200h-200zM200 1922v200h200 v-200h-200zM400 600v200h200v-200h-200zM400 1200v200h200v-200h-200zM400 1722v200h200v-200h-200zM600 600v200h200v-200h-200zM600 1200v200h200v-200h-200zM600 1522v200h200v-200h-200zM800 0v200h200v-200h-200zM800 200v200h200v-200h-200zM800 400v200h200v-200 h-200zM800 600v200h200v-200h-200zM800 800v200h200v-200h-200zM800 1000v200h200v-200h-200zM800 1722v200h200v-200h-200z" unicode="Ã"/><glyph d="M0 0v200h200v-200h-200zM0 200v200h200v-200h-200zM0 400v200h200v-200h-200zM0 600v200h200v-200h-200zM0 800v200h200v-200h-200zM0 1000v200h200v-200h-200zM0 1200v200h200v-200h-200zM200 0v200h200v-200h-200zM200 600v200h200v-200h-200zM200 1200v200h200v-200 h-200zM200 1722v200h200v-200h-200zM400 0v200h200v-200h-200zM400 600v200h200v-200h-200zM400 1200v200h200v-200h-200zM400 1522v200h200v-200h-200zM600 0v200h200v-200h-200zM600 600v200h200v-200h-200zM600 1200v200h200v-200h-200zM800 0v200h200v-200h-200z M800 1200v200h200v-200h-200z" unicode="È"/><glyph d="M0 0v200h200v-200h-200zM0 200v200h200v-200h-200zM0 400v200h200v-200h-200zM0 600v200h200v-200h-200zM0 800v200h200v-200h-200zM0 1000v200h200v-200h-200zM0 1200v200h200v-200h-200zM200 0v200h200v-200h-200zM200 600v200h200v-200h-200zM200 1200v200h200v-200 h-200zM200 1522v200h200v-200h-200zM200 1722v200h200v-200h-200zM400 0v200h200v-200h-200zM400 600v200h200v-200h-200zM400 1200v200h200v-200h-200zM400 1922v200h200v-200h-200zM600 0v200h200v-200h-200zM600 600v200h200v-200h-200zM600 1200v200h200v-200h-200z M600 1522v200h200v-200h-200zM600 1722v200h200v-200h-200zM800 0v200h200v-200h-200zM800 1200v200h200v-200h-200z" unicode="Ê"/><glyph d="M0 0v200h200v-200h-200zM0 1200v200h200v-200h-200zM200 0v200h200v-200h-200zM200 1200v200h200v-200h-200zM200 1722v200h200v-200h-200zM400 0v200h200v-200h-200zM400 200v200h200v-200h-200zM400 400v200h200v-200h-200zM400 600v200h200v-200h-200zM400 800v200 h200v-200h-200zM400 1000v200h200v-200h-200zM400 1200v200h200v-200h-200zM400 1522v200h200v-200h-200zM600 0v200h200v-200h-200zM600 1200v200h200v-200h-200zM800 0v200h200v-200h-200zM800 1200v200h200v-200h-200z" unicode="Ì"/><glyph d="M0 0v200h200v-200h-200zM0 1200v200h200v-200h-200zM200 0v200h200v-200h-200zM200 1200v200h200v-200h-200zM200 1522v200h200v-200h-200zM200 1722v200h200v-200h-200zM400 0v200h200v-200h-200zM400 200v200h200v-200h-200zM400 400v200h200v-200h-200zM400 600v200 h200v-200h-200zM400 800v200h200v-200h-200zM400 1000v200h200v-200h-200zM400 1200v200h200v-200h-200zM400 1922v200h200v-200h-200zM600 0v200h200v-200h-200zM600 1200v200h200v-200h-200zM600 1522v200h200v-200h-200zM600 1722v200h200v-200h-200zM800 0v200h200v-200 h-200zM800 1200v200h200v-200h-200z" unicode="Î"/><glyph d="M0 0v200h200v-200h-200zM0 200v200h200v-200h-200zM0 400v200h200v-200h-200zM0 600v200h200v-200h-200zM0 800v200h200v-200h-200zM0 1000v200h200v-200h-200zM0 1200v200h200v-200h-200zM0 1722v200h200v-200h-200zM200 800v200h200v-200h-200zM200 1922v200h200v-200 h-200zM400 600v200h200v-200h-200zM400 1722v200h200v-200h-200zM600 400v200h200v-200h-200zM600 1522v200h200v-200h-200zM800 0v200h200v-200h-200zM800 200v200h200v-200h-200zM800 400v200h200v-200h-200zM800 600v200h200v-200h-200zM800 800v200h200v-200h-200z M800 1000v200h200v-200h-200zM800 1200v200h200v-200h-200zM800 1722v200h200v-200h-200z" unicode="Ñ"/><glyph d="M0 200v200h200v-200h-200zM0 400v200h200v-200h-200zM0 600v200h200v-200h-200zM0 800v200h200v-200h-200zM0 1000v200h200v-200h-200zM200 0v200h200v-200h-200zM200 1200v200h200v-200h-200zM200 1722v200h200v-200h-200zM400 0v200h200v-200h-200zM400 1200v200h200 v-200h-200zM400 1522v200h200v-200h-200zM600 0v200h200v-200h-200zM600 1200v200h200v-200h-200zM800 200v200h200v-200h-200zM800 400v200h200v-200h-200zM800 600v200h200v-200h-200zM800 800v200h200v-200h-200zM800 1000v200h200v-200h-200z" unicode="Ò"/><glyph d="M0 200v200h200v-200h-200zM0 400v200h200v-200h-200zM0 600v200h200v-200h-200zM0 800v200h200v-200h-200zM0 1000v200h200v-200h-200zM200 0v200h200v-200h-200zM200 1200v200h200v-200h-200zM200 1522v200h200v-200h-200zM200 1722v200h200v-200h-200zM400 0v200h200 v-200h-200zM400 1200v200h200v-200h-200zM400 1922v200h200v-200h-200zM600 0v200h200v-200h-200zM600 1200v200h200v-200h-200zM600 1522v200h200v-200h-200zM600 1722v200h200v-200h-200zM800 200v200h200v-200h-200zM800 400v200h200v-200h-200zM800 600v200h200v-200 h-200zM800 800v200h200v-200h-200zM800 1000v200h200v-200h-200z" unicode="Ô"/><glyph d="M0 200v200h200v-200h-200zM0 400v200h200v-200h-200zM0 600v200h200v-200h-200zM0 800v200h200v-200h-200zM0 1000v200h200v-200h-200zM0 1722v200h200v-200h-200zM200 0v200h200v-200h-200zM200 1200v200h200v-200h-200zM200 1922v200h200v-200h-200zM400 0v200h200 v-200h-200zM400 1200v200h200v-200h-200zM400 1722v200h200v-200h-200zM600 0v200h200v-200h-200zM600 1200v200h200v-200h-200zM600 1522v200h200v-200h-200zM800 200v200h200v-200h-200zM800 400v200h200v-200h-200zM800 600v200h200v-200h-200zM800 800v200h200v-200 h-200zM800 1000v200h200v-200h-200zM800 1722v200h200v-200h-200z" unicode="Õ"/><glyph d="M0 200v200h200v-200h-200zM0 400v200h200v-200h-200zM0 600v200h200v-200h-200zM0 800v200h200v-200h-200zM0 1000v200h200v-200h-200zM0 1200v200h200v-200h-200zM200 0v200h200v-200h-200zM200 1722v200h200v-200h-200zM400 0v200h200v-200h-200zM400 1522v200h200 v-200h-200zM600 0v200h200v-200h-200zM800 200v200h200v-200h-200zM800 400v200h200v-200h-200zM800 600v200h200v-200h-200zM800 800v200h200v-200h-200zM800 1000v200h200v-200h-200zM800 1200v200h200v-200h-200z" unicode="Ù"/><glyph d="M0 200v200h200v-200h-200zM0 400v200h200v-200h-200zM0 600v200h200v-200h-200zM0 800v200h200v-200h-200zM0 1000v200h200v-200h-200zM0 1200v200h200v-200h-200zM200 0v200h200v-200h-200zM200 1522v200h200v-200h-200zM200 1722v200h200v-200h-200zM400 0v200h200 v-200h-200zM400 1922v200h200v-200h-200zM600 0v200h200v-200h-200zM600 1522v200h200v-200h-200zM600 1722v200h200v-200h-200zM800 200v200h200v-200h-200zM800 400v200h200v-200h-200zM800 600v200h200v-200h-200zM800 800v200h200v-200h-200zM800 1000v200h200v-200 h-200zM800 1200v200h200v-200h-200z" unicode="Û"/><glyph d="M0 200v200h200v-200h-200zM0 400v200h200v-200h-200zM0 600v200h200v-200h-200zM200 0v200h200v-200h-200zM200 800v200h200v-200h-200zM200 1322v200h200v-200h-200zM400 0v200h200v-200h-200zM400 800v200h200v-200h-200zM400 1122v200h200v-200h-200zM600 0v200h200 v-200h-200zM600 200v200h200v-200h-200zM600 400v200h200v-200h-200zM600 600v200h200v-200h-200zM600 800v200h200v-200h-200zM800 0v200h200v-200h-200z" unicode="à"/><glyph d="M0 200v200h200v-200h-200zM0 400v200h200v-200h-200zM0 600v200h200v-200h-200zM200 0v200h200v-200h-200zM200 800v200h200v-200h-200zM200 1122v200h200v-200h-200zM200 1322v200h200v-200h-200zM400 0v200h200v-200h-200zM400 800v200h200v-200h-200zM400 1522v200 h200v-200h-200zM600 0v200h200v-200h-200zM600 200v200h200v-200h-200zM600 400v200h200v-200h-200zM600 600v200h200v-200h-200zM600 800v200h200v-200h-200zM600 1122v200h200v-200h-200zM600 1322v200h200v-200h-200zM800 0v200h200v-200h-200z" unicode="â"/><glyph d="M0 200v200h200v-200h-200zM0 400v200h200v-200h-200zM0 600v200h200v-200h-200zM0 1322v200h200v-200h-200zM200 0v200h200v-200h-200zM200 800v200h200v-200h-200zM200 1522v200h200v-200h-200zM400 0v200h200v-200h-200zM400 800v200h200v-200h-200zM400 1322v200h200 v-200h-200zM600 0v200h200v-200h-200zM600 200v200h200v-200h-200zM600 400v200h200v-200h-200zM600 600v200h200v-200h-200zM600 800v200h200v-200h-200zM600 1122v200h200v-200h-200zM800 0v200h200v-200h-200zM800 1322v200h200v-200h-200z" unicode="ã"/><glyph d="M0 200v200h200v-200h-200zM0 400v200h200v-200h-200zM0 600v200h200v-200h-200zM200 0v200h200v-200h-200zM200 400v200h200v-200h-200zM200 800v200h200v-200h-200zM200 1322v200h200v-200h-200zM400 0v200h200v-200h-200zM400 400v200h200v-200h-200zM400 800v200h200 v-200h-200zM400 1122v200h200v-200h-200zM600 0v200h200v-200h-200zM600 400v200h200v-200h-200zM600 800v200h200v-200h-200zM800 0v200h200v-200h-200zM800 400v200h200v-200h-200zM800 600v200h200v-200h-200z" unicode="è"/><glyph d="M0 200v200h200v-200h-200zM0 400v200h200v-200h-200zM0 600v200h200v-200h-200zM200 0v200h200v-200h-200zM200 400v200h200v-200h-200zM200 800v200h200v-200h-200zM200 1122v200h200v-200h-200zM200 1322v200h200v-200h-200zM400 0v200h200v-200h-200zM400 400v200h200 v-200h-200zM400 800v200h200v-200h-200zM400 1522v200h200v-200h-200zM600 0v200h200v-200h-200zM600 400v200h200v-200h-200zM600 800v200h200v-200h-200zM600 1122v200h200v-200h-200zM600 1322v200h200v-200h-200zM800 0v200h200v-200h-200zM800 400v200h200v-200h-200z M800 600v200h200v-200h-200z" unicode="ê"/><glyph d="M0 0v200h200v-200h-200zM0 800v200h200v-200h-200zM0 1722v200h200v-200h-200zM200 0v200h200v-200h-200zM200 200v200h200v-200h-200zM200 400v200h200v-200h-200zM200 600v200h200v-200h-200zM200 800v200h200v-200h-200zM200 1200v200h200v-200h-200zM200 1522v200 h200v-200h-200zM400 0v200h200v-200h-200z" horiz-adv-x="820" unicode="ì"/><glyph d="M0 0v200h200v-200h-200zM0 800v200h200v-200h-200zM0 1522v200h200v-200h-200zM0 1722v200h200v-200h-200zM200 0v200h200v-200h-200zM200 200v200h200v-200h-200zM200 400v200h200v-200h-200zM200 600v200h200v-200h-200zM200 800v200h200v-200h-200zM200 1200v200h200 v-200h-200zM200 1922v200h200v-200h-200zM400 0v200h200v-200h-200zM400 1522v200h200v-200h-200zM400 1722v200h200v-200h-200z" horiz-adv-x="820" unicode="î"/><glyph d="M-100 1322v200h200v-200h-200zM0 0v200h200v-200h-200zM0 200v200h200v-200h-200zM0 400v200h200v-200h-200zM0 600v200h200v-200h-200zM0 800v200h200v-200h-200zM100 1522v200h200v-200h-200zM200 800v200h200v-200h-200zM300 1322v200h200v-200h-200zM400 800v200h200 v-200h-200zM500 1122v200h200v-200h-200zM600 0v200h200v-200h-200zM600 200v200h200v-200h-200zM600 400v200h200v-200h-200zM600 600v200h200v-200h-200zM700 1322v200h200v-200h-200z" horiz-adv-x="1024" unicode="ñ"/><glyph d="M0 200v200h200v-200h-200zM0 400v200h200v-200h-200zM0 600v200h200v-200h-200zM200 0v200h200v-200h-200zM200 800v200h200v-200h-200zM200 1322v200h200v-200h-200zM400 0v200h200v-200h-200zM400 800v200h200v-200h-200zM400 1122v200h200v-200h-200zM600 0v200h200 v-200h-200zM600 800v200h200v-200h-200zM800 200v200h200v-200h-200zM800 400v200h200v-200h-200zM800 600v200h200v-200h-200z" unicode="ò"/><glyph d="M0 200v200h200v-200h-200zM0 400v200h200v-200h-200zM0 600v200h200v-200h-200zM200 0v200h200v-200h-200zM200 800v200h200v-200h-200zM200 1122v200h200v-200h-200zM200 1322v200h200v-200h-200zM400 0v200h200v-200h-200zM400 800v200h200v-200h-200zM400 1522v200 h200v-200h-200zM600 0v200h200v-200h-200zM600 800v200h200v-200h-200zM600 1122v200h200v-200h-200zM600 1322v200h200v-200h-200zM800 200v200h200v-200h-200zM800 400v200h200v-200h-200zM800 600v200h200v-200h-200z" unicode="ô"/><glyph d="M0 200v200h200v-200h-200zM0 400v200h200v-200h-200zM0 600v200h200v-200h-200zM0 1322v200h200v-200h-200zM200 0v200h200v-200h-200zM200 800v200h200v-200h-200zM200 1522v200h200v-200h-200zM400 0v200h200v-200h-200zM400 800v200h200v-200h-200zM400 1322v200h200 v-200h-200zM600 0v200h200v-200h-200zM600 800v200h200v-200h-200zM600 1122v200h200v-200h-200zM800 200v200h200v-200h-200zM800 400v200h200v-200h-200zM800 600v200h200v-200h-200zM800 1322v200h200v-200h-200z" unicode="õ"/><glyph d="M0 200v200h200v-200h-200zM0 400v200h200v-200h-200zM0 600v200h200v-200h-200zM0 800v200h200v-200h-200zM100 1322v200h200v-200h-200zM200 0v200h200v-200h-200zM300 1122v200h200v-200h-200zM400 0v200h200v-200h-200zM600 0v200h200v-200h-200zM600 200v200h200 v-200h-200zM600 400v200h200v-200h-200zM600 600v200h200v-200h-200zM600 800v200h200v-200h-200z" horiz-adv-x="1024" unicode="ù"/><glyph d="M0 200v200h200v-200h-200zM0 400v200h200v-200h-200zM0 600v200h200v-200h-200zM0 800v200h200v-200h-200zM100 1122v200h200v-200h-200zM100 1322v200h200v-200h-200zM200 0v200h200v-200h-200zM300 1522v200h200v-200h-200zM400 0v200h200v-200h-200zM500 1122v200h200 v-200h-200zM500 1322v200h200v-200h-200zM600 0v200h200v-200h-200zM600 200v200h200v-200h-200zM600 400v200h200v-200h-200zM600 600v200h200v-200h-200zM600 800v200h200v-200h-200z" horiz-adv-x="1024" unicode="û"/><glyph d="M0 200v200h200v-200h-200zM0 400v200h200v-200h-200zM0 600v200h200v-200h-200zM0 800v200h200v-200h-200zM0 1000v200h200v-200h-200zM200 0v200h200v-200h-200zM200 1200v200h200v-200h-200zM400 0v200h200v-200h-200zM400 1200v200h200v-200h-200zM600 0v200h200v-200 h-200zM600 1200v200h200v-200h-200zM800 200v200h200v-200h-200zM800 400v200h200v-200h-200zM800 600v200h200v-200h-200zM800 800v200h200v-200h-200zM800 1000v200h200v-200h-200zM1228 0v200h200v-200h-200zM1228 200v200h200v-200h-200zM1228 400v200h200v-200h-200z M1228 600v200h200v-200h-200zM1228 800v200h200v-200h-200zM1228 1000v200h200v-200h-200zM1228 1200v200h200v-200h-200zM1428 0v200h200v-200h-200zM1428 600v200h200v-200h-200zM1428 1200v200h200v-200h-200zM1628 0v200h200v-200h-200zM1628 600v200h200v-200h-200z M1628 1200v200h200v-200h-200zM1828 0v200h200v-200h-200zM1828 600v200h200v-200h-200zM1828 1200v200h200v-200h-200zM2028 0v200h200v-200h-200zM2028 1200v200h200v-200h-200z" horiz-adv-x="2456" unicode="Œ"/><glyph d="M0 200v200h200v-200h-200zM0 400v200h200v-200h-200zM0 600v200h200v-200h-200zM200 0v200h200v-200h-200zM200 800v200h200v-200h-200zM400 0v200h200v-200h-200zM400 800v200h200v-200h-200zM600 0v200h200v-200h-200zM600 800v200h200v-200h-200zM800 200v200h200 v-200h-200zM800 400v200h200v-200h-200zM800 600v200h200v-200h-200zM1228 200v200h200v-200h-200zM1228 400v200h200v-200h-200zM1228 600v200h200v-200h-200zM1428 0v200h200v-200h-200zM1428 400v200h200v-200h-200zM1428 800v200h200v-200h-200zM1628 0v200h200v-200 h-200zM1628 400v200h200v-200h-200zM1628 800v200h200v-200h-200zM1828 0v200h200v-200h-200zM1828 400v200h200v-200h-200zM1828 800v200h200v-200h-200zM2028 0v200h200v-200h-200zM2028 400v200h200v-200h-200zM2028 600v200h200v-200h-200z" horiz-adv-x="2456" unicode="œ"/><glyph d="M0 1000v200h200v-200h-200zM0 1200v200h200v-200h-200zM200 1400v200h200v-200h-200zM400 1000v200h200v-200h-200zM400 1200v200h200v-200h-200z" horiz-adv-x="820" unicode="ˆ"/><glyph d="M-500 322v200h200v-200h-200zM-300 522v200h200v-200h-200zM-100 322v200h200v-200h-200zM100 122v200h200v-200h-200zM300 322v200h200v-200h-200z" horiz-adv-x="820" unicode="˜"/><glyph d="M0 600v200h800v-200h-800z" horiz-adv-x="1024" unicode="–"/><glyph d="M0 600v200h1824v-200h-1824z" horiz-adv-x="2048" unicode="—"/><glyph d="M0 1200v200h200v-200h-200zM200 1000v200h200v-200h-200z" horiz-adv-x="614" unicode="‘"/><glyph d="M0 1000v200h200v-200h-200zM0 1200v200h200v-200h-200z" horiz-adv-x="410" unicode="’"/><glyph d="M0 1000v200h200v-200h-200zM0 1200v200h200v-200h-200zM400 1000v200h200v-200h-200zM400 1200v200h200v-200h-200z" horiz-adv-x="820" unicode="“"/><glyph d="M0 1000v200h200v-200h-200zM0 1200v200h200v-200h-200zM400 1000v200h200v-200h-200zM400 1200v200h200v-200h-200z" horiz-adv-x="820" unicode="”"/><glyph d="M0 0v200h200v-200h-200zM410 0v200h200v-200h-200zM820 0v200h200v-200h-200z" horiz-adv-x="1230" unicode="…"/><glyph d="M0 600v200h200v-200h-200zM200 400v200h200v-200h-200zM200 800v200h200v-200h-200zM400 200v200h200v-200h-200zM400 1000v200h200v-200h-200zM600 0v200h200v-200h-200zM600 1200v200h200v-200h-200z" horiz-adv-x="1024" unicode="‹"/><glyph d="M0 0v200h200v-200h-200zM0 1200v200h200v-200h-200zM200 200v200h200v-200h-200zM200 1000v200h200v-200h-200zM400 400v200h200v-200h-200zM400 800v200h200v-200h-200zM600 600v200h200v-200h-200z" horiz-adv-x="1024" unicode="›"/><glyph d="M0 1200v200h200v-200h-200zM200 1200v200h200v-200h-200zM400 0v200h200v-200h-200zM400 200v200h200v-200h-200zM400 400v200h200v-200h-200zM400 600v200h200v-200h-200zM400 800v200h200v-200h-200zM400 1000v200h200v-200h-200zM400 1200v200h200v-200h-200z M600 1200v200h200v-200h-200zM800 1200v200h200v-200h-200zM1228 0v200h200v-200h-200zM1228 200v200h200v-200h-200zM1228 400v200h200v-200h-200zM1228 600v200h200v-200h-200zM1228 800v200h200v-200h-200zM1228 1000v200h200v-200h-200zM1228 1200v200h200v-200h-200z M1428 1000v200h200v-200h-200zM1628 800v200h200v-200h-200zM1828 1000v200h200v-200h-200zM2028 0v200h200v-200h-200zM2028 200v200h200v-200h-200zM2028 400v200h200v-200h-200zM2028 600v200h200v-200h-200zM2028 800v200h200v-200h-200zM2028 1000v200h200v-200h-200z M2028 1200v200h200v-200h-200z" horiz-adv-x="2456" unicode="™"/><glyph d="M0 1000h1000v-1000h-1000v1000z" horiz-adv-x="1000" unicode=""/><glyph d="M0 0h200v-200h-200v200zM0 800v200h200v-200h-200zM200 0v200h200v-200h-200zM200 200v200h200v-200h-200zM200 400v200h200v-200h-200zM200 600v200h200v-200h-200zM200 800v200h200v-200h-200zM200 1000v200h200v-200h-200zM200 1200v200h200v-200h-200zM400 800v200 h200v-200h-200zM400 1400v200h200v-200h-200zM600 800v200h200v-200h-200zM600 1400v200h200v-200h-200zM1024 0v200h200v-200h-200zM1024 800v200h200v-200h-200zM1224 0v200h200v-200h-200zM1224 200v200h200v-200h-200zM1224 400v200h200v-200h-200zM1224 600v200h200 v-200h-200zM1224 800v200h200v-200h-200zM1224 1200v200h200v-200h-200zM1424 0v200h200v-200h-200z" horiz-adv-x="1844" unicode="ﬁ"/><glyph d="M0 0h200v-200h-200v200zM0 800v200h200v-200h-200zM200 0v200h200v-200h-200zM200 200v200h200v-200h-200zM200 400v200h200v-200h-200zM200 600v200h200v-200h-200zM200 800v200h200v-200h-200zM200 1000v200h200v-200h-200zM200 1200v200h200v-200h-200zM400 800v200 h200v-200h-200zM400 1400v200h200v-200h-200zM600 800v200h200v-200h-200zM600 1400v200h200v-200h-200zM1024 0v200h200v-200h-200zM1024 200v200h200v-200h-200zM1024 400v200h200v-200h-200zM1024 600v200h200v-200h-200zM1024 800v200h200v-200h-200zM1024 1000v200h200 v-200h-200zM1024 1200v200h200v-200h-200z" horiz-adv-x="1434" unicode="ﬂ"/><glyph d="M0 0h200v-200h-200v200zM0 800v200h200v-200h-200zM200 0v200h200v-200h-200zM200 200v200h200v-200h-200zM200 400v200h200v-200h-200zM200 600v200h200v-200h-200zM200 800v200h200v-200h-200zM200 1000v200h200v-200h-200zM200 1200v200h200v-200h-200zM400 800v200 h200v-200h-200zM400 1400v200h200v-200h-200zM600 800v200h200v-200h-200zM600 1400v200h200v-200h-200zM1024 0h200v-200h-200v200zM1024 800v200h200v-200h-200zM1224 0v200h200v-200h-200zM1224 200v200h200v-200h-200zM1224 400v200h200v-200h-200zM1224 600v200h200 v-200h-200zM1224 800v200h200v-200h-200zM1224 1000v200h200v-200h-200zM1224 1200v200h200v-200h-200zM1424 800v200h200v-200h-200zM1424 1400v200h200v-200h-200zM1624 800v200h200v-200h-200zM1624 1400v200h200v-200h-200zM2048 0v200h200v-200h-200zM2048 800v200h200 v-200h-200zM2248 0v200h200v-200h-200zM2248 200v200h200v-200h-200zM2248 400v200h200v-200h-200zM2248 600v200h200v-200h-200zM2248 800v200h200v-200h-200zM2248 1200v200h200v-200h-200zM2448 0v200h200v-200h-200z" horiz-adv-x="2868" unicode="ﬃ"/><glyph d="M0 0h200v-200h-200v200zM0 800v200h200v-200h-200zM200 0v200h200v-200h-200zM200 200v200h200v-200h-200zM200 400v200h200v-200h-200zM200 600v200h200v-200h-200zM200 800v200h200v-200h-200zM200 1000v200h200v-200h-200zM200 1200v200h200v-200h-200zM400 800v200 h200v-200h-200zM400 1400v200h200v-200h-200zM600 800v200h200v-200h-200zM600 1400v200h200v-200h-200zM1024 0h200v-200h-200v200zM1024 800v200h200v-200h-200zM1224 0v200h200v-200h-200zM1224 200v200h200v-200h-200zM1224 400v200h200v-200h-200zM1224 600v200h200 v-200h-200zM1224 800v200h200v-200h-200zM1224 1000v200h200v-200h-200zM1224 1200v200h200v-200h-200zM1424 800v200h200v-200h-200zM1424 1400v200h200v-200h-200zM1624 800v200h200v-200h-200zM1624 1400v200h200v-200h-200zM2048 0v200h200v-200h-200zM2048 200v200h200 v-200h-200zM2048 400v200h200v-200h-200zM2048 600v200h200v-200h-200zM2048 800v200h200v-200h-200zM2048 1000v200h200v-200h-200zM2048 1200v200h200v-200h-200z" horiz-adv-x="2458" unicode="ﬄ"/></font>
</defs>
</svg>
